:SAMPLES-PER-SECOND 30
:FULLY-SPECIFIED
:DEGREES
198
root  -34.3273 37.6088 8.17583 148.637 78.5116 154.892
RightUpLeg  19.4206 -0.236611 -11.065
RightLeg  37.5423 6.44893 4.93367
RightFoot  -9.23771 -0.291105 15.141
RightToes  -8.73116e-010 0 -3.6325e-017
Spine  9.42673 1.13829 -3.93868
Spine1  13.728 1.57642 -3.61007
HEad  -11.8516 -1.41554 2.0153
LeftShoulder1  -0.194262 4.06715 -28.3139
LeftArm  -11.3535 5.11467 -30.0157
LeftForeArm  76.699 -78.7666 -99.2467
LeftHand  -0.0549097 2.64408 1.5196
RightShoulder  -0.310044 -4.4075 27.1009
RightArm  -10.813 -16.629 40.6133
RightForeArm  110.321 70.6922 144.154
RightHand  -0.386148 1.53867 -6.62836
LeftUpLeg  -20.7727 2.27824 -5.04731
LeftLeg  29.5775 1.52218 1.29223
LeftFoot  -0.737636 -0.462756 5.02242
LeftToes  -5.63919e-011 3.32596e-011 1.92487e-011
199
root  -32.8995 37.7918 7.5661 137.311 79.9494 143.761
RightUpLeg  11.4673 1.25885 -12.6652
RightLeg  50.9172 3.75009 4.60862
RightFoot  4.45427 -1.57472 11.8106
RightToes  -8.73116e-010 0 -3.6325e-017
Spine  9.57319 1.56508 -4.85169
Spine1  13.5944 2.0428 -4.60411
HEad  -11.3971 -1.14256 1.5864
LeftShoulder1  -0.164259 3.98301 -28.1368
LeftArm  -11.2653 5.22332 -30.0152
LeftForeArm  75.3035 -78.7723 -98.3441
LeftHand  -0.0529999 2.35254 1.4133
RightShoulder  -0.291057 -4.34848 27.1801
RightArm  -10.8208 -16.5533 40.6305
RightForeArm  109.709 70.6463 144.17
RightHand  -0.443628 2.37286 -6.82678
LeftUpLeg  -17.9298 3.79588 -6.35569
LeftLeg  30.2406 2.44242 1.89684
LeftFoot  -3.95097 -0.319631 5.28068
LeftToes  -5.63919e-011 3.32596e-011 1.92487e-011
200
root  -31.544 38.0189 7.00261 126.61 80.1856 133.347
RightUpLeg  4.22039 1.76769 -13.8661
RightLeg  60.9538 2.60296 4.62023
RightFoot  9.59269 -1.25262 6.97643
RightToes  -8.73116e-010 0 -3.6325e-017
Spine  10.594 1.3783 -6.177
Spine1  12.7472 1.65244 -5.17084
HEad  -11.3097 -0.432169 0.960903
LeftShoulder1  -0.212435 4.1289 -27.7747
LeftArm  -11.5088 5.96649 -29.8902
LeftForeArm  78.6223 -78.6534 -101.747
LeftHand  -0.051541 2.08898 1.46381
RightShoulder  -0.286487 -4.34198 26.8499
RightArm  -10.6355 -15.8905 40.7745
RightForeArm  111.736 70.5261 144.656
RightHand  -0.359738 1.62316 -6.12943
LeftUpLeg  -14.4923 4.05738 -7.86641
LeftLeg  29.4267 3.72871 2.63667
LeftFoot  -6.28594 -0.173399 4.79285
LeftToes  -5.63919e-011 3.32596e-011 1.92487e-011
201
root  -30.0948 38.3928 6.49283 119.05 81.4303 125.827
RightUpLeg  -2.3567 2.026 -13.1692
RightLeg  66.294 2.48073 5.55861
RightFoot  5.57974 -1.05466 7.3433
RightToes  -8.73116e-010 0 -3.6325e-017
Spine  10.481 1.3298 -6.68165
Spine1  12.4053 1.23861 -4.43148
HEad  -11.1684 0.60071 -0.200878
LeftShoulder1  -0.25282 4.23944 -28.1993
LeftArm  -11.7906 7.02043 -29.3617
LeftForeArm  81.2012 -78.4892 -104.855
LeftHand  -0.0498455 2.55009 1.50156
RightShoulder  -0.214141 -4.13751 26.1997
RightArm  -10.7518 -15.8149 40.7443
RightForeArm  113.77 70.1775 145.565
RightHand  -0.330577 2.19485 -5.24419
LeftUpLeg  -10.6226 6.17854 -7.70397
LeftLeg  27.2961 3.48718 2.33153
LeftFoot  -8.19989 -0.0711768 4.37463
LeftToes  -5.63919e-011 3.32596e-011 1.92487e-011
202
root  -28.6205 38.7446 6.00817 115.299 82.3887 122.208
RightUpLeg  -7.87176 1.50954 -11.6367
RightLeg  67.415 2.66975 6.37759
RightFoot  3.79214 -0.976423 7.53352
RightToes  -8.73116e-010 0 -3.6325e-017
Spine  10.4393 1.06815 -6.58213
Spine1  12.123 0.768861 -4.08257
HEad  -11.4017 1.06279 -0.525351
LeftShoulder1  -0.206025 4.10856 -27.889
LeftArm  -12.1079 8.06354 -29.9874
LeftForeArm  83.4071 -78.3339 -107.354
LeftHand  -0.0359738 2.76176 0.961927
RightShoulder  -0.280139 -4.33338 26.4519
RightArm  -10.943 -16.1098 39.9533
RightForeArm  116.629 69.3611 147.352
RightHand  -0.331392 2.25789 -5.21964
LeftUpLeg  -6.43085 8.16328 -7.01705
LeftLeg  24.6822 2.51936 1.55138
LeftFoot  -9.77919 0.00704713 3.85619
LeftToes  -5.63919e-011 3.32596e-011 1.92487e-011
203
root  -27.085 39.0676 5.54347 113.301 83.5102 119.9
RightUpLeg  -12.8611 0.985627 -9.36173
RightLeg  64.895 2.71175 5.74032
RightFoot  1.90883 -0.862705 7.53673
RightToes  -8.73116e-010 0 -3.6325e-017
Spine  9.84696 0.776371 -6.45793
Spine1  11.6363 0.250574 -3.07219
HEad  -11.5711 1.3437 -0.855253
LeftShoulder1  -0.170645 4.00633 -27.7827
LeftArm  -12.2142 9.2463 -30.6098
LeftForeArm  86.8384 -78.0992 -110.755
LeftHand  -0.0372172 2.83173 1.0228
RightShoulder  -0.340059 -4.50838 26.7313
RightArm  -11.6891 -17.1815 38.9829
RightForeArm  121.452 68.3737 149.477
RightHand  -0.235315 2.38123 -3.7143
LeftUpLeg  -2.40009 9.16103 -5.89832
LeftLeg  21.5654 2.22879 0.693047
LeftFoot  -10.9407 0.0524737 3.62456
LeftToes  -5.63919e-011 3.32596e-011 1.92487e-011
204
root  -25.5606 39.2625 5.09223 119.19 83.7939 125.834
RightUpLeg  -16.2236 -0.374174 -7.44871
RightLeg  59.2951 2.84241 4.71465
RightFoot  -0.290565 -0.696083 7.13867
RightToes  -8.73116e-010 0 -3.6325e-017
Spine  9.95466 0.0101424 -7.00036
Spine1  10.8023 -0.999043 -1.24864
HEad  -11.8254 1.79908 -1.09759
LeftShoulder1  -0.179984 4.03281 -27.8369
LeftArm  -12.4233 10.3242 -31.0208
LeftForeArm  90.8694 -77.8008 -114.449
LeftHand  -0.0382551 2.63363 1.02096
RightShoulder  -0.287294 -4.35522 26.4662
RightArm  -12.6608 -18.4813 38.4589
RightForeArm  124.629 67.3811 151.252
RightHand  -0.206492 2.4636 -3.25769
LeftUpLeg  1.71742 8.79205 -5.02241
LeftLeg  18.8598 1.98887 -0.354731
LeftFoot  -12.0892 0.0938022 3.13615
LeftToes  -5.63919e-011 3.32596e-011 1.92487e-011
205
root  -24.0561 39.3141 4.64799 123.174 84.0646 129.712
RightUpLeg  -18.8975 -1.14605 -5.70122
RightLeg  51.1153 3.19464 3.86209
RightFoot  -1.90745 -0.506315 6.02296
RightToes  -8.73116e-010 0 -3.6325e-017
Spine  9.84977 -0.589312 -6.9086
Spine1  10.2118 -1.71557 -0.215129
HEad  -11.7222 2.26886 -0.975201
LeftShoulder1  -0.136282 3.90626 -27.6904
LeftArm  -12.2611 10.664 -31.5179
LeftForeArm  93.1366 -77.5637 -116.779
LeftHand  -0.030424 3.30488 0.743866
RightShoulder  -0.377541 -4.6176 26.8715
RightArm  -13.5182 -19.1859 37.6033
RightForeArm  126.682 66.544 152.551
RightHand  -0.193515 2.8206 -2.95352
LeftUpLeg  5.29406 8.66656 -4.44435
LeftLeg  16.7534 1.72625 -1.09026
LeftFoot  -13.3682 0.137066 3.2199
LeftToes  -5.63919e-011 3.32596e-011 1.92487e-011
206
root  -22.5334 39.2208 4.23071 125.216 83.9756 131.824
RightUpLeg  -19.9898 -2.00678 -4.56038
RightLeg  40.2851 3.78992 3.18365
RightFoot  -3.8226 -0.45954 6.56233
RightToes  -8.73116e-010 0 -3.6325e-017
Spine  9.61341 -1.0932 -7.20736
Spine1  10.2826 -2.3863 0.854589
HEad  -12.3944 2.37814 -1.10686
LeftShoulder1  -0.13663 3.90545 -27.8438
LeftArm  -12.1128 10.1832 -31.7884
LeftForeArm  94.1538 -77.3895 -118.194
LeftHand  -0.0348666 3.54242 1.03815
RightShoulder  -0.415869 -4.72534 27.0921
RightArm  -14.1853 -19.6991 36.818
RightForeArm  128.91 65.3885 154.159
RightHand  -0.186223 3.0118 -2.8063
LeftUpLeg  8.84873 8.52194 -4.37765
LeftLeg  15.1186 1.59352 -1.4871
LeftFoot  -14.8363 0.185044 3.14157
LeftToes  -5.63919e-011 3.32596e-011 1.92487e-011
207
root  -20.9778 39.0488 3.82717 127.037 83.6772 133.708
RightUpLeg  -19.8917 -2.92177 -3.56006
RightLeg  27.2812 3.37142 1.68595
RightFoot  -4.50574 -0.401485 6.2514
RightToes  -8.73116e-010 0 -3.6325e-017
Spine  9.08906 -1.62255 -7.04246
Spine1  10.8948 -2.86585 1.28852
HEad  -13.185 3.12961 -1.02504
LeftShoulder1  -0.13121 3.88958 -27.8211
LeftArm  -11.7325 9.14495 -32.1731
LeftForeArm  93.9768 -77.437 -117.843
LeftHand  -0.0313483 3.08092 0.722437
RightShoulder  -0.393726 -4.6655 26.8847
RightArm  -15.221 -20.5506 37.0707
RightForeArm  129.891 64.4292 155.294
RightHand  -0.183108 3.37544 -2.66593
LeftUpLeg  12.3901 8.3567 -4.57455
LeftLeg  13.5652 1.37799 -1.63889
LeftFoot  -16.1697 0.233401 3.22056
LeftToes  -5.63919e-011 3.32596e-011 1.92487e-011
208
root  -19.367 38.7652 3.45706 126.523 83.2524 133.366
RightUpLeg  -18.7703 -4.02211 -2.96634
RightLeg  13.6869 1.93002 0.437741
RightFoot  -5.78135 -0.388545 7.14124
RightToes  -8.73116e-010 0 -3.6325e-017
Spine  8.68973 -1.89318 -7.1749
Spine1  11.2687 -3.21887 1.94894
HEad  -13.4511 2.98006 -1.25617
LeftShoulder1  -0.159532 3.96851 -28.1684
LeftArm  -11.0334 7.82289 -32.2166
LeftForeArm  91.2534 -77.6187 -115.833
LeftHand  -0.0460089 2.46986 1.34985
RightShoulder  -0.336917 -4.50836 26.4346
RightArm  -15.7451 -21.6737 37.5136
RightForeArm  129.141 63.5998 156.069
RightHand  -0.270569 3.06259 -3.9579
LeftUpLeg  16.0779 8.34548 -4.9497
LeftLeg  12.162 1.16661 -1.73707
LeftFoot  -17.5763 0.284817 3.29258
LeftToes  -5.63919e-011 3.32596e-011 1.92487e-011
